<?xml version="1.0" encoding="utf-8"?>
<!-- Generator: Adobe Illustrator 24.0.3, SVG Export Plug-In . SVG Version: 6.00 Build 0)  -->
<svg version="1.1" id="Calque_1" xmlns="http://www.w3.org/2000/svg" xmlns:xlink="http://www.w3.org/1999/xlink" x="0px" y="0px"
	 viewBox="0 0 470 470" style="enable-background:new 0 0 470 470;" xml:space="preserve">
<style type="text/css">
	.st0{fill:url(#SVGID_1_);}
	.st1{fill:url(#SVGID_2_);}
	.st2{fill:url(#SVGID_3_);}
	.st3{fill:url(#SVGID_4_);}
</style>
<linearGradient id="SVGID_1_" gradientUnits="userSpaceOnUse" x1="199.8323" y1="149.4591" x2="270.1686" y2="149.4591">
	<stop  offset="0" style="stop-color:#20004F"/>
	<stop  offset="1" style="stop-color:#47002C"/>
	<stop  offset="1" style="stop-color:#000000"/>
</linearGradient>
<path class="st0" d="M202,149.9c-2.9,2.9-2.9,7.7,0,10.6c1.5,1.5,3.4,2.2,5.3,2.2s3.8-0.7,5.3-2.2c12.3-12.3,32.4-12.3,44.7,0
	c2.9,2.9,7.7,2.9,10.6,0c2.9-2.9,2.9-7.7,0-10.6C249.8,131.7,220.2,131.7,202,149.9L202,149.9z"/>
<linearGradient id="SVGID_2_" gradientUnits="userSpaceOnUse" x1="147.6783" y1="191.862" x2="193.6207" y2="191.862">
	<stop  offset="0" style="stop-color:#20004F"/>
	<stop  offset="1" style="stop-color:#47002C"/>
	<stop  offset="1" style="stop-color:#000000"/>
</linearGradient>
<path class="st1" d="M180.8,171.1L149.9,202c-2.9,2.9-2.9,7.7,0,10.6c1.5,1.5,3.4,2.2,5.3,2.2s3.8-0.7,5.3-2.2l30.9-30.9
	c2.9-2.9,2.9-7.7,0-10.6C188.5,168.2,183.7,168.2,180.8,171.1z"/>
<linearGradient id="SVGID_3_" gradientUnits="userSpaceOnUse" x1="8.299017e-05" y1="235.0001" x2="470.0011" y2="235.0001">
	<stop  offset="0" style="stop-color:#20004F"/>
	<stop  offset="1" style="stop-color:#47002C"/>
	<stop  offset="1" style="stop-color:#000000"/>
</linearGradient>
<path class="st2" d="M467.8,142c-7.5-7.5-9.2-12.8-11.3-18.9c-2.3-7-4.9-14.8-14.9-24.8c-10-10-17.9-12.6-24.8-14.9
	c-6.1-2-11.4-3.8-18.9-11.3c-7.5-7.5-9.2-12.8-11.3-18.9c-2.3-7-4.9-14.8-14.9-24.8c-10-10-17.9-12.6-24.8-14.9
	c-6.1-2-11.4-3.8-18.9-11.3c-1.7-1.7-4-2.5-6.3-2.1c-2.3,0.3-4.4,1.7-5.5,3.8c-1.5,2.7-33.5,60.7-29.9,122
	c-14.1-12.7-32.1-19.6-51.2-19.6c-20.5,0-39.7,8-54.2,22.4l-52.2,52.2c-28.9,28.9-29.8,75.3-2.8,105.4
	c-61.3-3.5-119.3,28.4-122,29.9c-2,1.1-3.4,3.2-3.8,5.5c-0.3,2.3,0.5,4.7,2.1,6.3c7.5,7.5,9.2,12.8,11.3,18.9
	c2.3,7,4.9,14.8,14.9,24.8c10,10,17.9,12.6,24.8,14.9c6.1,2,11.4,3.8,18.9,11.3c7.5,7.5,9.2,12.8,11.3,18.9
	c2.3,7,4.9,14.8,14.9,24.8c10,10,17.9,12.6,24.8,14.9c6.1,2,11.4,3.8,18.9,11.3c1.4,1.4,3.3,2.2,5.3,2.2c0.3,0,0.7,0,1-0.1
	c2.3-0.3,4.4-1.7,5.5-3.8c1.5-2.7,33.5-60.7,29.9-122c14.1,12.7,32.1,19.6,51.2,19.6c20.5,0,39.7-8,54.2-22.4l52.2-52.2
	c28.9-28.9,29.8-75.4,2.8-105.4c3.2,0.2,6.4,0.3,9.6,0.3c57.6,0,109.8-28.8,112.4-30.2c2-1.1,3.4-3.2,3.8-5.5
	C470.3,146,469.5,143.7,467.8,142L467.8,142z M330.7,278.6l-52.2,52.2c-11.6,11.6-27.1,18.1-43.6,18.1s-31.9-6.4-43.6-18.1
	l-52.2-52.2c-24-24-24-63.1,0-87.2l52.2-52.2c11.6-11.6,27.1-18.1,43.6-18.1s31.9,6.4,43.6,18.1l52.2,52.2
	C354.8,215.5,354.8,254.5,330.7,278.6z M127.8,442.3c-6.1-2-11.4-3.8-18.9-11.3c-7.5-7.5-9.2-12.8-11.3-18.9
	c-2.3-7-4.9-14.8-14.9-24.8c-10-10-17.9-12.6-24.8-14.9c-6.1-2-11.4-3.8-18.9-11.3c-7.5-7.5-9.2-12.8-11.3-18.9
	c-1.7-5.1-3.5-10.6-8.3-17.1c19.9-9.4,72.3-30.8,121.6-22c-6.2,2.8-13,6.2-20.3,10.4c-3.6,2.1-4.8,6.6-2.8,10.2
	c1.4,2.4,3.9,3.8,6.5,3.8c1.3,0,2.5-0.3,3.7-1c9.6-5.5,18.1-9.6,25.4-12.3l2.3,2.3c-9.3,24.9-32.5,57.7-46,75.6
	c-2.5,3.3-1.8,8,1.5,10.5c1.4,1,2.9,1.5,4.5,1.5c2.3,0,4.5-1,6-3c15.4-20.5,34.5-48.2,45.1-72c8.8,49.3-12.6,101.7-22,121.6
	C138.4,445.8,132.9,444,127.8,442.3L127.8,442.3z M329,166.9c23.8-10.5,51.6-29.7,72-45.1c3.3-2.5,4-7.2,1.5-10.5s-7.2-4-10.5-1.5
	c-17.9,13.5-50.7,36.7-75.6,46l-2.3-2.3c9.3-24.9,32.5-57.7,46-75.6c2.5-3.3,1.8-8-1.5-10.5c-3.3-2.5-8-1.8-10.5,1.5
	c-15.4,20.5-34.5,48.2-45.1,72c-8.8-49.3,12.6-101.7,22-121.6c6.5,4.7,12.1,6.6,17.1,8.3c6.1,2,11.4,3.8,18.9,11.3
	c7.5,7.5,9.2,12.8,11.3,18.9c2.3,7,4.9,14.8,14.9,24.8c10,10,17.9,12.6,24.8,14.9c6.1,2,11.4,3.8,18.9,11.3
	c7.5,7.5,9.2,12.8,11.3,18.9c1.7,5.1,3.5,10.6,8.3,17.1C430.7,154.3,378.3,175.8,329,166.9L329,166.9z"/>
<linearGradient id="SVGID_4_" gradientUnits="userSpaceOnUse" x1="65.9902" y1="344.9993" x2="106.538" y2="344.9993">
	<stop  offset="0" style="stop-color:#20004F"/>
	<stop  offset="1" style="stop-color:#47002C"/>
	<stop  offset="1" style="stop-color:#000000"/>
</linearGradient>
<path class="st3" d="M94.8,329.7c-8.4,5.6-17.1,11.9-25.9,18.5c-3.3,2.5-4,7.2-1.5,10.5c1.5,2,3.7,3,6,3c1.6,0,3.2-0.5,4.5-1.5
	c8.6-6.5,17.1-12.5,25.2-18c3.4-2.3,4.3-7,2-10.4C102.9,328.2,98.3,327.3,94.8,329.7L94.8,329.7z"/>
</svg>
