<?xml version="1.0" encoding="utf-8"?>
<!-- Generator: Adobe Illustrator 24.0.3, SVG Export Plug-In . SVG Version: 6.00 Build 0)  -->
<svg version="1.1" id="Calque_1" xmlns="http://www.w3.org/2000/svg" xmlns:xlink="http://www.w3.org/1999/xlink" x="0px" y="0px"
	 viewBox="0 0 512 512" style="enable-background:new 0 0 512 512;" xml:space="preserve">
<style type="text/css">
	.st0{fill:url(#SVGID_1_);}
</style>
<linearGradient id="SVGID_1_" gradientUnits="userSpaceOnUse" x1="-1.201331e-04" y1="255.9991" x2="512.0002" y2="255.9991">
	<stop  offset="0" style="stop-color:#20004F"/>
	<stop  offset="1" style="stop-color:#47002C"/>
</linearGradient>
<path class="st0" d="M506.8,186.6c-17.9-55.1-77.2-85.3-132.3-67.4c-7.3,2.4-14.6,5.6-21.9,9.7c1.6-8.2,2.4-16.2,2.4-23.8
	c0-58.4-40.4-105-98-105C199.4,0,157,46.7,157,105c0,7.6,0.8,15.7,2.4,23.8c-7.3-4-14.6-7.3-21.9-9.7
	c-55-17.9-114.4,12.3-132.3,67.4c-18.1,55.8,12.7,118,67.4,135.8c7.3,2.4,15.1,4,23.4,5c-6.1,5.7-11.5,11.7-16,17.8
	c-34,46.8-23.6,112.6,23.2,146.6c46.8,34,107.6,23.8,141.7-23.2c4.5-6.2,8.5-13.2,12-20.7c3.5,7.6,7.5,14.5,12,20.7
	c34.2,47,92.9,57.2,139.6,23.2c46.8-34,57.2-99.8,23.2-146.6c-4.5-6.2-9.9-12.2-16-17.8c8.3-1,16.1-2.7,23.4-5
	C494.1,304.6,524.9,242.4,506.8,186.6z M257.1,30c39.4,0,68,31.5,68,75c0,19.6-7.7,43.7-20.5,64.5c-1.6,2.5-2.3,5.3-2.2,8.1
	l-15.6,27c-4.7-2-9.8-3.6-14.9-4.6v-61.5c0-8.3-6.5-15-14.8-15s-15,6.7-15,15V200c-5.2,1.1-10.2,2.7-15,4.8l-17.4-28.6
	c-0.2-2.3-0.9-4.6-2.2-6.7C194.6,148.7,187,124.6,187,105C187,62.3,217.1,30,257.1,30z M81.9,293.8c-38.5-12.5-61-58.3-48.1-98
	c12.8-39.3,55.2-60.9,94.5-48.1c16.1,5.2,33.8,17,48.5,32.3l25.8,42.2c-4.1,4.3-7.7,9.2-10.6,14.4l-58.5-19
	c-7.9-2.6-16.3,1.8-18.9,9.6c-2.6,7.9,1.8,16.3,9.6,18.9l58.5,19c-0.7,6-0.6,11.4,0,17.2l-37.5,13.1
	C122.7,300,99.3,299.5,81.9,293.8z M242.1,387.3c-1.9,24.2-9.9,48-21.3,63.7c-24.4,33.6-66.5,40.8-99.8,16.6
	c-33.4-24.3-40.9-71.3-16.6-104.7c19.9-27.3,54.3-39.8,57-41.5l30.7-10.7c2.8,4.8,6,9.3,9.8,13.4l-36.2,49.8
	c-4.9,6.7-3.4,16.1,3.3,20.9c6.7,4.9,16.1,3.4,20.9-3.3l36.2-49.8c5.1,2.3,10.4,4.1,16,5.2L242.1,387.3L242.1,387.3z M257.1,318.5
	c-24.8,0-45-20.2-45-45s20.2-45,45-45c24.8,0,45,20.2,45,45S281.9,318.5,257.1,318.5z M391.1,467.6c-34.5,25-74.1,15.9-97.7-16.6
	c-11.4-15.7-19.6-39.5-21.5-63.7V347c5.6-1.1,11.2-2.9,16.2-5.2l36.2,49.8c4.9,6.7,14.2,8.2,20.9,3.3c6.7-4.9,8.2-14.2,3.3-20.9
	l-36.2-49.8c3.7-4,6.9-8.5,9.7-13.3l28,10.1c3.4,2.6,37.5,14.2,57.7,42C432,396.3,424.5,443.3,391.1,467.6L391.1,467.6z M368,295.5
	l-36.5-13.2c0.7-5.9,0.7-11.3,0.1-17.3l58.5-19c7.9-2.6,12.2-11,9.6-18.9s-11-12.2-18.9-9.6l-58.5,19c-3-5.3-6.7-10.2-10.9-14.6
	l24.8-42.9c14.6-14.8,31.8-26.2,47.6-31.3c39.3-12.8,81.7,8.8,94.5,48.1c12.9,39.7-9.6,85.5-48.1,98h0
	C413,299.4,390.1,300,368,295.5L368,295.5z"/>
</svg>
