<?xml version="1.0" encoding="utf-8"?>
<!-- Generator: Adobe Illustrator 24.0.3, SVG Export Plug-In . SVG Version: 6.00 Build 0)  -->
<svg version="1.1" id="Calque_1" xmlns="http://www.w3.org/2000/svg" xmlns:xlink="http://www.w3.org/1999/xlink" x="0px" y="0px"
	 viewBox="0 0 407.7 407.7" style="enable-background:new 0 0 407.7 407.7;" xml:space="preserve">
<style type="text/css">
	.st0{fill:url(#SVGID_1_);}
</style>
<linearGradient id="SVGID_1_" gradientUnits="userSpaceOnUse" x1="7.012837e-05" y1="203.8498" x2="407.6999" y2="203.8498">
	<stop  offset="0" style="stop-color:#20004F"/>
	<stop  offset="1" style="stop-color:#47002C"/>
</linearGradient>
<path class="st0" d="M405.5,118c-0.1-0.1-0.2-0.2-0.3-0.3L321,42.9c-0.8-0.7-1.7-1.2-2.6-1.6l-60.9-21.8c-4.2-1.5-8.7,0.6-10.2,4.8
	c-0.3,0.7-0.4,1.5-0.5,2.3c0,1.8-2.6,42.3-43.2,43c-40.8-0.6-43.4-41.2-43.4-43c-0.2-4.4-4-7.8-8.4-7.6c-0.8,0-1.5,0.2-2.2,0.4
	l-60.8,22c-1,0.4-1.9,0.9-2.6,1.6L2.5,117.7c-3.2,3-3.3,8.1-0.3,11.3c0.1,0.1,0.2,0.2,0.3,0.3L69,196.6v184c0,4.4,3.6,8,8,8h253.6
	c4.4,0,8-3.6,8-8v-184l66.6-67.3C408.4,126.3,408.5,121.2,405.5,118L405.5,118z M338.4,173.8v-37.1c0-4.4-3.6-8-8-8s-8,3.6-8,8
	v235.5H84.7V136.7c0-4.4-3.6-8-8-8s-8,3.6-8,8v37.2l-49.2-49.8l76.2-68.2l50.1-18.1c6.2,32,37.1,52.9,69.1,46.6
	c23.6-4.6,42.1-23,46.6-46.6l50.1,18.1l75.9,68.2L338.4,173.8z"/>
</svg>
