<?xml version="1.0" standalone="no"?>
<!DOCTYPE svg PUBLIC "-//W3C//DTD SVG 20010904//EN"
 "http://www.w3.org/TR/2001/REC-SVG-20010904/DTD/svg10.dtd">
<svg version="1.0" xmlns="http://www.w3.org/2000/svg"
 width="74.000000pt" height="74.000000pt" viewBox="0 0 74.000000 74.000000"
 preserveAspectRatio="xMidYMid meet">
<metadata>
Created by potrace 1.11, written by Peter Selinger 2001-2013
</metadata>
<g transform="translate(0.000000,74.000000) scale(0.100000,-0.100000)"
fill="#000000" stroke="none">
<path d="M354 705 c-8 -30 -30 -33 -37 -4 -4 15 -12 20 -29 17 -18 -2 -24 -11
-28 -37 l-5 -33 -19 21 c-34 38 -59 21 -49 -32 5 -27 4 -27 -20 -16 -45 21
-73 -3 -41 -35 21 -22 9 -36 -26 -29 -40 8 -51 -19 -20 -52 l22 -24 -38 -3
c-47 -4 -57 -29 -19 -46 31 -14 28 -34 -6 -42 -35 -8 -33 -44 4 -48 34 -4 35
-25 1 -41 -31 -14 -27 -35 7 -39 50 -6 54 -11 29 -37 -33 -35 -21 -59 25 -51
40 8 41 5 19 -29 -9 -13 -13 -29 -9 -35 9 -15 41 -12 60 7 16 15 17 14 14 -20
-5 -51 13 -66 43 -37 l23 21 3 -25 c2 -13 10 -30 19 -37 13 -11 19 -9 37 14
28 34 33 34 41 -3 9 -40 37 -39 52 1 l12 31 24 -28 c26 -30 47 -26 47 10 0 34
10 38 41 15 26 -18 30 -19 35 -5 4 9 4 25 1 36 -6 24 10 37 26 21 27 -27 66
-1 46 30 -5 8 -9 22 -9 32 0 14 4 16 19 7 46 -24 69 3 35 41 -20 22 -11 39 20
39 12 0 26 3 29 6 10 10 -12 44 -28 44 -8 0 -15 7 -15 15 0 9 9 15 25 15 20 0
25 5 25 25 0 18 -5 25 -19 25 -33 0 -35 21 -6 44 33 27 26 46 -16 46 -31 0
-41 23 -14 34 8 3 15 15 15 27 0 19 -4 21 -35 15 -38 -7 -41 -3 -25 39 8 21 7
27 -6 32 -9 3 -25 1 -35 -5 -27 -17 -29 -16 -29 28 0 45 -19 54 -44 19 -18
-27 -36 -16 -36 22 0 35 -28 40 -48 9 -16 -27 -29 -25 -36 5 -4 16 -13 25 -26
25 -13 0 -22 -9 -26 -25z m-6 -83 c2 -12 -1 -22 -7 -22 -6 0 -11 4 -11 9 0 5
-3 17 -7 27 -4 12 -2 15 8 12 8 -2 15 -14 17 -26z m39 8 c-4 -15 0 -20 14 -20
12 0 19 7 19 20 0 11 6 20 14 20 11 0 12 -5 3 -25 -9 -19 -20 -25 -44 -25 -33
0 -38 6 -27 34 9 23 27 20 21 -4z m-101 -9 c-3 -5 1 -15 10 -22 14 -12 13 -14
-7 -21 -12 -5 -24 -6 -27 -3 -3 3 0 5 6 5 7 0 12 7 12 15 0 8 -4 15 -10 15 -5
0 -10 5 -10 10 0 6 7 10 16 10 8 0 13 -4 10 -9z m204 -16 c0 -24 1 -25 23 -11
30 21 53 7 38 -23 -14 -25 -33 -27 -51 -6 -7 8 -18 15 -25 15 -8 0 -10 9 -7
25 6 33 22 32 22 0z m-246 -17 c8 -32 7 -38 -5 -38 -20 0 -39 33 -27 47 15 19
25 16 32 -9z m104 -66 c2 -23 -2 -50 -8 -61 l-11 -21 -37 20 c-20 11 -42 20
-48 20 -7 0 -14 7 -18 15 -3 8 -1 15 4 15 5 0 15 6 22 13 18 18 71 45 83 43 6
-2 11 -21 13 -44z m115 32 c37 -19 67 -44 67 -55 0 -4 -24 -19 -52 -32 l-53
-26 -5 57 c-7 80 -7 81 43 56z m-270 -8 c18 -14 23 -36 9 -36 -18 0 -52 -97
-52 -147 0 -43 -3 -52 -21 -56 -21 -6 -39 23 -39 63 0 28 40 150 49 150 5 0
11 9 14 20 6 23 15 25 40 6z m412 1 c33 -34 57 -101 58 -167 1 -38 -1 -72 -5
-76 -5 -4 -19 -2 -33 4 -22 10 -23 15 -15 38 11 27 -4 87 -37 151 -14 26 -15
34 -4 47 16 19 19 20 36 3z m-389 -122 c4 -8 11 -15 18 -15 28 -1 74 -60 47
-60 -5 0 -16 -6 -23 -12 -24 -23 -59 -39 -68 -33 -11 7 -14 118 -3 128 11 11
23 8 29 -8z m368 -60 c0 -30 -3 -57 -6 -60 -6 -6 -47 11 -58 24 -3 3 -14 11
-24 17 -32 17 -28 27 22 61 56 39 66 33 66 -42z m-183 35 c25 -14 24 -52 -1
-68 -17 -10 -23 -9 -40 8 -12 12 -19 24 -17 28 2 4 7 15 10 25 7 20 20 21 48
7z m105 -140 c15 0 24 -23 16 -37 -10 -16 -75 -53 -92 -53 -12 0 -14 12 -12
65 l4 64 36 -19 c20 -11 42 -20 48 -20z m-158 -33 c3 -50 1 -57 -16 -57 -10 0
-40 15 -66 34 l-48 34 54 25 c29 15 58 25 63 23 6 -1 11 -28 13 -59z m-171 38
c2 -6 -10 -16 -27 -22 -27 -10 -30 -9 -30 7 0 27 48 40 57 15z m450 9 c28 -8
19 -34 -13 -34 -14 0 -22 -5 -20 -12 1 -7 1 -10 -1 -5 -3 4 -12 7 -21 7 -15 1
-15 2 1 11 9 5 17 17 17 24 0 16 5 18 37 9z m-415 -86 c-4 -18 -2 -20 16 -16
27 7 27 7 3 -20 -19 -23 -33 -20 -24 6 5 11 2 14 -10 9 -26 -10 -30 10 -5 27
12 9 17 16 10 16 -6 0 -12 5 -12 11 0 8 4 8 14 0 8 -7 12 -21 8 -33z m352 14
c2 -4 -4 -9 -15 -9 -11 -1 -17 2 -14 8 7 11 22 12 29 1z m-284 -61 c0 -5 -7
-14 -15 -21 -12 -10 -15 -10 -15 2 0 8 3 18 7 21 9 10 23 9 23 -2z m270 -1 c0
-5 -4 -10 -10 -10 -5 0 -10 5 -10 10 0 6 5 10 10 10 6 0 10 -4 10 -10z m-170
-15 c0 -8 -4 -15 -10 -15 -5 0 -10 4 -10 9 0 5 -8 12 -17 14 -11 3 -7 5 10 6
18 1 27 -4 27 -14z m-56 -34 c-8 -9 -22 12 -17 26 6 15 7 14 13 -3 4 -10 6
-21 4 -23z m136 19 c0 -11 -4 -20 -10 -20 -5 0 -10 9 -10 20 0 11 5 20 10 20
6 0 10 -9 10 -20z m34 5 c3 -9 0 -15 -9 -15 -9 0 -12 6 -9 15 4 8 7 15 9 15 2
0 5 -7 9 -15z m-70 -11 c4 -10 1 -14 -6 -12 -15 5 -23 28 -10 28 5 0 13 -7 16
-16z"/>
</g>
</svg>
